<?xml version="1.0" encoding="utf-8"?>
<!-- Generator: Adobe Illustrator 27.9.0, SVG Export Plug-In . SVG Version: 6.00 Build 0)  -->
<svg version="1.1" id="Layer_1" xmlns="http://www.w3.org/2000/svg" xmlns:xlink="http://www.w3.org/1999/xlink" x="0px" y="0px"
	 viewBox="0 0 300 90" style="enable-background:new 0 0 300 90;" xml:space="preserve">
<style type="text/css">
	.st0{fill:#D20A0A;}
</style>
<g>
	<g>
		<path d="M125.7,29.5c1.3-1.1,3.2-1.6,5.7-1.6h6c1.8,0,3.1,0.4,4,1.1c0.9,0.7,1.4,1.8,1.4,3.1c0,0.7-0.1,1.4-0.3,2.1l-0.6,2h-5.1
			l0.4-1.7c0.1-0.3,0.2-0.7,0.2-1c0-0.5-0.2-0.8-0.5-1.1c-0.4-0.2-0.9-0.3-1.7-0.3h-3.9c-1,0-1.7,0.2-2.2,0.6
			c-0.5,0.4-0.9,1-1.1,1.9l-0.5,1.8c-0.1,0.3-0.1,0.5-0.1,0.6c0,0.5,0.3,0.9,0.9,1.2l8.4,2.7c2,0.6,3.1,1.9,3.1,3.7
			c0,0.6-0.1,1.3-0.3,2l-0.7,2.6c-0.6,2.1-1.5,3.6-2.9,4.7c-1.3,1.1-3.2,1.6-5.7,1.6h-6.4c-1.7,0-3-0.4-3.9-1.1
			c-0.9-0.7-1.4-1.8-1.4-3.1c0-0.7,0.1-1.4,0.3-2.1l0.7-2.7h5.1l-0.6,2.4c-0.1,0.5-0.2,0.8-0.2,1c0,0.5,0.2,0.9,0.5,1.1
			c0.3,0.2,0.9,0.4,1.7,0.4h4.3c0.9,0,1.7-0.2,2.2-0.6c0.5-0.4,0.9-1,1.1-1.9l0.6-2.2c0.1-0.1,0.1-0.4,0.1-0.6
			c0-0.7-0.3-1.1-0.9-1.3l-8.4-2.6c-2.1-0.6-3.1-1.8-3.1-3.7c0-0.7,0.1-1.3,0.3-2l0.6-2.2C123.4,32.2,124.4,30.6,125.7,29.5z"/>
		<path d="M165.6,32.5h-7.8l-6.3,22.8h-5.1l6.3-22.8h-7.8l1.2-4.3h20.7L165.6,32.5z"/>
		<path d="M170.1,29.7c1.4-1.2,3.4-1.7,6.1-1.7h5.6c3.8,0,5.6,1.5,5.6,4.4c0,0.9-0.1,1.8-0.4,2.8l-3.7,13.2
			c-0.7,2.5-1.7,4.3-3.1,5.5c-1.4,1.1-3.4,1.7-6.1,1.7h-5.6c-3.8,0-5.6-1.5-5.6-4.4c0-0.9,0.1-1.8,0.4-2.8l3.7-13.2
			C167.7,32.7,168.7,30.8,170.1,29.7z M168.3,49.5c0,0.6,0.2,1,0.6,1.3c0.4,0.2,1,0.4,1.9,0.4h3.5c1.2,0,2.1-0.2,2.7-0.7
			c0.6-0.5,1-1.4,1.4-2.6l3.4-12.2c0.2-0.6,0.3-1.2,0.3-1.7c0-0.6-0.2-1-0.6-1.3c-0.4-0.2-1-0.4-1.9-0.4H176c-1.2,0-2.1,0.2-2.6,0.7
			c-0.6,0.5-1,1.4-1.4,2.6l-3.4,12.2C168.4,48.4,168.3,49,168.3,49.5z"/>
		<path d="M207.1,28.2c1.6,0,2.8,0.4,3.7,1.1c0.9,0.7,1.3,1.8,1.3,3.1c0,0.6-0.1,1.3-0.3,2.2l-1.3,4.7c-0.5,1.6-1.1,3-2,4
			c-0.9,1-2.1,1.7-3.6,2.1l2.2,9.9h-5.3l-1.9-9.5h-5.7l-2.6,9.5h-5.1l7.5-27.1H207.1z M202,41.4c1,0,1.7-0.2,2.3-0.7
			c0.5-0.4,1-1.2,1.2-2.2l0.8-3.1c0.1-0.6,0.2-1.1,0.2-1.4c0-0.5-0.2-0.9-0.5-1.2c-0.3-0.2-0.9-0.3-1.6-0.3H198l-2.5,8.9H202z"/>
		<path d="M236.7,28.2l-1.2,4.3h-12.9l-1.9,6.9h10.9l-1.2,4.2h-10.9l-2,7.3h13l-1.2,4.3h-18l7.5-27.1H236.7z"/>
	</g>
	<g>
		<g>
			<polygon class="st0" points="83.9,14.9 57.7,14.9 59.8,7.1 86.1,7.1 			"/>
			<polygon class="st0" points="66.1,28.2 80.2,28.2 82.4,20.4 56.2,20.4 49.9,42.8 62.1,42.8 			"/>
			<g>
				<path class="st0" d="M95.9,34.7c-0.3-0.2-0.5-0.4-0.6-0.7c0-0.1,0-0.2,0-0.3c0-0.1,0-0.2,0-0.3l4.8-17.1c0.1-0.5,0.4-0.8,0.7-1
					c0.3-0.2,0.9-0.3,1.8-0.3h13.1l2.2-7.8H99.4c-3.3,0-5.7,0.4-7,1.2c-1.4,0.8-2.3,2.1-2.8,4.1l-6.8,24.4c-0.1,0.4-0.2,0.7-0.2,1.1
					c0,0.4,0,0.7,0.1,1.1c0.3,1.2,1.1,2.1,2.3,2.8c1.2,0.7,2.8,1,4.6,1h19.2l2.2-7.8H97C96.6,34.9,96.2,34.8,95.9,34.7"/>
				<path class="st0" d="M23.4,7.1l-8.2,29.6c-0.1,0.4-0.2,0.7-0.2,1.1c0,0.4,0,0.7,0.1,1.1c0.3,1.2,1.1,2.1,2.3,2.8
					c1.2,0.7,2.8,1,4.6,1l13.7,0c3.3,0,5.7-0.4,7-1.2c1.4-0.8,2.3-2.1,2.8-4.1l8.5-30.5H41.9l-7.4,26.5c-0.1,0.5-0.4,0.8-0.7,1
					c-0.3,0.2-0.9,0.3-1.8,0.3H30c-0.5,0-0.9-0.1-1.2-0.3c-0.3-0.2-0.5-0.4-0.6-0.7c0-0.1,0-0.2,0-0.3c0-0.1,0-0.2,0-0.3l7.3-26.3
					H23.4z"/>
			</g>
		</g>
		<polygon class="st0" points="11.5,49.9 10,55.3 105.4,55.3 106.9,49.9 		"/>
	</g>
</g>
<g>
	<path d="M92.5,71.1c1.9,0,3.4,1.6,3.3,3.4c0,0.1,0,0.2,0,0.4v4.2c0,0.1,0,0.1-0.1,0.1h-1.9c-0.1,0-0.1,0-0.1-0.1c0,0,0,0,0,0v-4.3
		c0.1-0.9-0.5-1.7-1.4-1.8c-0.1,0-0.2,0-0.2,0l0,0c-1,0-1.7,0.8-1.7,1.8v4.3c0,0.1,0,0.1-0.1,0.1c0,0,0,0,0,0h-1.9
		c-0.1,0-0.1-0.1-0.1-0.1l0,0v-7.9c0-0.1,0-0.1,0.1-0.1c0,0,0,0,0.1,0h1.9c0.1,0,0.1,0,0.1,0.1v0.7c0.6-0.6,1.4-0.9,2.3-0.9
		 M122,77.7c0,0,0,0.1,0,0.2c0.9,0.9,2.2,1.4,3.5,1.3c1.3,0.1,2.5-0.5,3.1-1.6c0.1-0.3,0.2-0.7,0.2-1c0-2.1-1.8-2.4-3.3-2.5
		c-1.2,0-1.2-0.5-1.2-0.7c0-0.5,0.8-0.6,1.2-0.6c0.6,0,1.2,0.2,1.6,0.5c0,0,0.1,0,0.2,0l1.1-1.3c0,0,0-0.1,0-0.2
		c-0.8-0.7-1.8-1-2.9-0.9c-0.8,0-1.5,0.2-2.2,0.5c-0.7,0.4-1.1,1.1-1.1,1.9c0,1.4,1.1,2.3,3.2,2.5c1.2,0,1.3,0.4,1.3,0.7
		c0,0.3-0.6,0.7-1.1,0.7l0,0c-0.9,0-1.7-0.3-2.4-0.9c0,0-0.1,0-0.2,0L122,77.7z M102.6,76.4c0.3-0.4,0.5-0.9,0.5-1.4
		c0-1.1-1-2.1-2.1-2c-1.1,0-2.1,1-2,2.1c0,1.1,0.9,2,2.1,2C101.5,77.1,102.1,76.9,102.6,76.4 M103,71.2c0-0.1,0-0.1,0-0.2
		c0,0,0,0,0.1,0h1.9c0.1,0,0.1,0,0.1,0.1V79c0,0.1-0.1,0.1-0.1,0.1h-1.9c-0.1,0-0.1,0-0.1-0.1c0,0,0,0,0,0v-0.6
		c-0.6,0.5-1.4,0.7-2.2,0.6h-0.1c-1.1,0.1-2.1-0.3-2.9-1c-0.8-0.8-1.2-1.9-1.1-3.1c-0.2-2.1,1.4-3.9,3.5-4c0.2,0,0.3,0,0.5,0l0,0
		c0.8-0.1,1.6,0.1,2.2,0.6L103,71.2z M79.1,69.2v-1.9c0-0.1,0-0.1-0.1-0.1c0,0,0,0,0,0h-7c-0.1,0-0.1,0.1-0.1,0.1V79
		c0,0.1,0.1,0.1,0.1,0.1h1.9c0.1,0,0.1,0,0.1-0.1c0,0,0,0,0,0v-4.8c0-0.1,0.1-0.1,0.1-0.1h3.5c0.1,0,0.1-0.1,0.1-0.1v-1.9
		c0-0.1-0.1-0.1-0.1-0.1h-3.5c-0.1,0-0.1-0.1-0.1-0.1v-2.4c0-0.1,0.1-0.1,0.1-0.1c0,0,0,0,0,0H79C79.1,69.3,79.1,69.3,79.1,69.2
		 M120.2,76.6c0,0-0.1,0-0.1,0c0,0,0,0,0,0c-0.4,0.3-0.8,0.5-1.3,0.5c-1.1-0.1-2-1.1-1.9-2.2c0.1-1,0.9-1.8,1.9-1.9
		c0.5,0,0.9,0.2,1.3,0.5c0,0,0.1,0,0.1,0l1.2-1.3c0,0,0-0.1,0-0.2c-0.7-0.7-1.7-1.1-2.7-1.1c-2.3,0-4.1,1.8-4.1,4.1s1.8,4.1,4.1,4.1
		c1,0,2-0.4,2.7-1.1c0,0,0-0.1,0-0.2L120.2,76.6z M110.1,79.2c0.1,0,0.1,0,0.1-0.1v-1.8c0-0.1-0.1-0.1-0.1-0.1h-0.9
		c-0.6,0-0.8-0.3-0.8-0.9v-3h1.8c0.1,0,0.1,0,0.1-0.1v-2c0-0.1,0-0.1-0.1-0.1h-1.7v-1.7c0-0.1-0.1-0.1-0.1-0.1h0h-1.9
		c-0.1,0-0.1,0.1-0.1,0.1v6.9c-0.2,1.4,0.8,2.7,2.3,2.9c0.2,0,0.4,0,0.6,0L110.1,79.2L110.1,79.2z M84.4,76.4
		c0.3-0.4,0.5-0.9,0.5-1.4c0-1.1-1-2-2.1-2s-2,1-2,2.1c0,1.1,0.9,2,2,2C83.4,77.1,84,76.9,84.4,76.4 M84.8,71.2c0-0.1,0-0.1,0.1-0.1
		h1.9c0.1,0,0.1,0,0.1,0.1v7.8c0,0.1,0,0.1-0.1,0.1h-1.9c-0.1,0-0.1,0-0.1-0.1v-0.6c-0.6,0.5-1.4,0.7-2.2,0.6h-0.1
		c-1.1,0.1-2.1-0.3-2.9-1c-0.8-0.8-1.2-1.9-1.1-3.1c-0.2-2.1,1.4-3.9,3.4-4.1c0.2,0,0.4,0,0.6,0l0,0c0.8-0.1,1.6,0.1,2.2,0.6
		L84.8,71.2z M111.4,79.2h1.9c0.1,0,0.1,0,0.1-0.1v-7.8c0-0.1,0-0.1-0.1-0.1h-1.9c-0.1,0-0.1,0-0.1,0.1c0,0,0,0,0,0v7.8
		C111.3,79.1,111.4,79.2,111.4,79.2 M113.6,68.7c-0.1-0.7-0.7-1.1-1.3-1.1c-0.6,0.1-1,0.5-1.1,1.1c0.1,0.7,0.7,1.1,1.3,1.1
		C113.1,69.7,113.5,69.3,113.6,68.7"/>
	<path d="M68.6,64.9l-2,3.1c-0.1,0-0.1,0-0.2,0c-4.6-2.3-10,2-14.7,0.9c0,0-0.1,0-0.1,0s-2.3-3.5-3-4.7c-0.1-0.1-0.1-0.2,0-0.3
		c0.1-0.1,0.1-0.1,0.2-0.1c1.2,0.3,2.4,0.5,3.6,0.6c7.2,0.4,11.1-3.9,16.3,0.2C68.6,64.7,68.7,64.8,68.6,64.9z M62.7,73.8
		c0,0,0.1,0,0.1,0l2.5-3.8c0,0,0-0.1,0-0.1c0,0,0,0,0,0c-3.5-1.2-6.8,1.1-11.8,1.2c-0.1,0-0.2,0.1-0.2,0.2c0,0,0,0.1,0,0.1l5.4,8.4
		c0,0.1,0.1,0.1,0.2,0.1c0,0,0.1-0.1,0.1-0.1l-1.2-5.3c0,0,0-0.1,0-0.1C58.3,74.2,61.3,73.2,62.7,73.8L62.7,73.8z"/>
	<path d="M140.6,79.1H133V68.8h7.6v1.6h-5.9v2.9h5.7v1.5h-5.7v2.8h6L140.6,79.1L140.6,79.1z"/>
	<path d="M146.8,71.9h1.9l0,0l-2.5,3.5l2.6,3.6l0,0H147l-1.8-2.6l-1.8,2.6h-1.8l0,0l2.6-3.6l-2.5-3.5l0,0h1.8l1.6,2.6L146.8,71.9z"
		/>
	<path d="M150.1,82.5V71.9h1.4v1.2c0.3-0.4,0.7-0.8,1.1-1c0.4-0.2,0.9-0.3,1.4-0.3c0.5,0,1,0.1,1.4,0.3c0.4,0.2,0.8,0.5,1.2,0.8
		c0.3,0.3,0.6,0.8,0.7,1.2c0.2,0.5,0.3,1,0.3,1.5c0,0.5-0.1,1-0.2,1.5c-0.2,0.4-0.4,0.9-0.7,1.2c-0.3,0.3-0.7,0.6-1.2,0.8
		c-0.5,0.2-1,0.3-1.5,0.3c-0.2,0-0.5,0-0.7,0c-0.2,0-0.5-0.1-0.7-0.2c-0.2-0.1-0.4-0.2-0.6-0.4c-0.2-0.2-0.4-0.4-0.5-0.6v4.4H150.1z
		 M154,77.9c0.3,0,0.6-0.1,0.9-0.2c0.3-0.1,0.5-0.3,0.7-0.5c0.2-0.2,0.4-0.5,0.5-0.7c0.1-0.3,0.2-0.6,0.2-0.9c0-0.6-0.2-1.2-0.6-1.7
		c-0.4-0.4-1.1-0.7-1.7-0.6c-0.3,0-0.7,0.1-1,0.2c-0.3,0.1-0.5,0.3-0.7,0.5c-0.2,0.2-0.4,0.5-0.5,0.7c-0.1,0.3-0.2,0.6-0.2,0.9
		c0,0.3,0.1,0.6,0.2,0.9c0.1,0.3,0.3,0.5,0.5,0.7c0.2,0.2,0.4,0.4,0.7,0.5C153.4,77.8,153.7,77.9,154,77.9z"/>
	<path d="M160.6,76.1c0.1,0.5,0.3,1,0.7,1.3c0.5,0.3,1,0.5,1.6,0.5c0.4,0,0.8-0.1,1.2-0.2c0.4-0.1,0.7-0.3,0.9-0.6l1,0.9
		c-0.2,0.2-0.4,0.4-0.6,0.5c-0.5,0.3-1,0.5-1.6,0.6c-0.3,0-0.6,0-0.9,0c-0.6,0-1.1-0.1-1.6-0.3c-0.5-0.2-0.9-0.4-1.2-0.8
		c-0.4-0.3-0.6-0.8-0.8-1.2c-0.2-0.5-0.3-1-0.3-1.6c0-0.5,0.1-1,0.3-1.5c0.2-0.4,0.4-0.8,0.7-1.1c0.3-0.3,0.7-0.6,1.2-0.8
		c0.5-0.2,1.1-0.3,1.7-0.3c0.5,0,1.1,0.1,1.6,0.3c1,0.4,1.7,1.2,1.9,2.2c0.1,0.6,0.2,1.3,0.1,1.9H160.6z M165,74.8
		c0-0.5-0.3-1-0.6-1.3c-0.4-0.3-0.9-0.5-1.4-0.4c-0.5,0-1,0.2-1.4,0.4c-0.4,0.3-0.7,0.8-0.8,1.3H165z"/>
	<path d="M169.4,71.9l0.1,0.9c0.2-0.4,0.6-0.7,1-0.9c0.4-0.1,0.8-0.2,1.2-0.2c0.3,0,0.7,0.1,1,0.2c0.3,0.1,0.5,0.2,0.8,0.4l-0.7,1.3
		c-0.2-0.1-0.4-0.3-0.6-0.3c-0.2-0.1-0.5-0.1-0.7-0.1c-0.3,0-0.5,0-0.8,0.1c-0.5,0.2-0.8,0.5-1,1c-0.1,0.3-0.2,0.6-0.2,0.9v3.9H168
		v-7.3H169.4z"/>
	<path d="M174.4,69.8c0-0.3,0.1-0.5,0.3-0.7c0.2-0.1,0.4-0.2,0.6-0.2c0.2,0,0.5,0.1,0.6,0.2c0.2,0.2,0.3,0.4,0.3,0.7
		c0,0.3-0.1,0.5-0.3,0.7c-0.2,0.1-0.4,0.2-0.6,0.2c-0.2,0-0.5-0.1-0.6-0.2C174.5,70.3,174.4,70,174.4,69.8z M176.1,71.9v7.3h-1.5
		v-7.3H176.1z"/>
	<path d="M179.2,76.1c0,0.5,0.3,1,0.7,1.3c0.5,0.3,1.1,0.5,1.6,0.5c0.4,0,0.8-0.1,1.2-0.2c0.4-0.1,0.7-0.3,0.9-0.6l1,0.9
		c-0.2,0.2-0.4,0.4-0.6,0.5c-0.2,0.2-0.5,0.3-0.8,0.4c-0.3,0.1-0.6,0.2-0.8,0.2c-0.3,0-0.6,0-0.8,0c-0.6,0-1.1-0.1-1.6-0.3
		c-0.9-0.3-1.7-1.1-2-2c-0.2-0.5-0.3-1-0.3-1.6c0-0.5,0.1-1,0.3-1.5c0.4-0.9,1.1-1.6,2-2c0.5-0.2,1-0.3,1.6-0.3
		c0.5,0,1.1,0.1,1.6,0.3c0.5,0.2,0.9,0.5,1.2,0.8c0.3,0.4,0.6,0.9,0.7,1.4c0.1,0.6,0.2,1.3,0.1,1.9L179.2,76.1z M183.7,74.8
		c0-0.5-0.3-1-0.6-1.3c-0.4-0.3-0.9-0.4-1.4-0.4c-0.5,0-1,0.2-1.4,0.4c-0.4,0.3-0.7,0.8-0.8,1.3H183.7z"/>
	<path d="M192.2,79.1v-3.9c0-0.6-0.2-1.1-0.5-1.5c-0.4-0.4-0.9-0.6-1.4-0.6c-0.3,0-0.6,0.1-0.8,0.2c-0.2,0.1-0.5,0.3-0.7,0.5
		c-0.2,0.2-0.3,0.4-0.4,0.7c-0.1,0.3-0.2,0.6-0.2,0.8v3.8h-1.5v-7.3h1.4l0.1,1.1c0.9-1.1,2.4-1.5,3.7-1c0.4,0.1,0.7,0.4,1,0.7
		c0.3,0.3,0.5,0.7,0.7,1.1c0.2,0.5,0.3,1,0.2,1.5v3.9L192.2,79.1L192.2,79.1z"/>
	<path d="M201.8,78.2c-0.4,0.4-0.8,0.7-1.3,0.9c-0.5,0.2-0.9,0.3-1.4,0.2c-0.5,0-1-0.1-1.4-0.2c-0.5-0.2-0.9-0.4-1.2-0.7
		c-0.4-0.3-0.6-0.7-0.8-1.2c-0.2-0.5-0.3-1.1-0.3-1.7c0-0.6,0.1-1.1,0.3-1.7c0.2-0.5,0.5-0.9,0.8-1.2c0.4-0.3,0.8-0.6,1.2-0.7
		c0.5-0.2,0.9-0.2,1.4-0.2c0.5,0,1,0.1,1.4,0.3c0.5,0.2,0.9,0.5,1.2,0.8l-0.9,1c-0.2-0.2-0.5-0.4-0.8-0.5c-0.6-0.2-1.2-0.2-1.8,0
		c-0.3,0.1-0.5,0.3-0.7,0.5c-0.2,0.2-0.4,0.5-0.5,0.7c-0.2,0.6-0.2,1.3,0,2c0.1,0.3,0.3,0.5,0.5,0.7c0.2,0.2,0.5,0.4,0.7,0.4
		c0.3,0.1,0.6,0.1,0.9,0.1c0.3,0,0.6,0,0.9-0.2c0.3-0.1,0.6-0.3,0.8-0.5L201.8,78.2z"/>
	<path d="M204.1,76.1c0,0.5,0.3,1,0.7,1.3c0.5,0.3,1.1,0.5,1.6,0.5c0.4,0,0.8-0.1,1.2-0.2c0.4-0.1,0.7-0.3,0.9-0.6l1,0.9
		c-0.2,0.2-0.4,0.4-0.6,0.5c-0.2,0.1-0.5,0.3-0.8,0.4c-0.3,0.1-0.6,0.2-0.8,0.2c-0.3,0-0.6,0-0.9,0c-0.6,0-1.1-0.1-1.6-0.3
		c-0.5-0.2-0.9-0.4-1.2-0.8c-0.3-0.3-0.6-0.8-0.8-1.2c-0.2-0.5-0.3-1-0.3-1.6c0-0.5,0.1-1,0.3-1.5c0.2-0.4,0.4-0.8,0.8-1.2
		c0.3-0.3,0.8-0.6,1.2-0.8c0.5-0.2,1-0.3,1.5-0.3c0.5,0,1.1,0.1,1.6,0.3c1,0.4,1.7,1.2,1.9,2.2c0.2,0.6,0.2,1.3,0.1,1.9L204.1,76.1z
		 M208.6,74.8c0-0.5-0.2-1-0.6-1.3c-0.4-0.3-0.9-0.5-1.4-0.4c-0.5,0-1,0.2-1.4,0.4c-0.4,0.3-0.7,0.8-0.8,1.3H208.6z"/>
	<path d="M45,77h-5.6l-1,2.2h-1.8l4.6-10.3h1.8l4.6,10.3H46L45,77z M42.2,70.5L40,75.4h4.3L42.2,70.5z"/>
</g>
</svg>
